<svg preserveAspectRatio="none" width="100%" height="100%" overflow="visible" style="display: block;" viewBox="0 0 20 20" fill="none" xmlns="http://www.w3.org/2000/svg">
<g id="Location on" clip-path="url(#clip0_27_95)">
<g id="Vector">
</g>
<path id="Vector_2" d="M10 1.66667C6.775 1.66667 4.16667 4.275 4.16667 7.5C4.16667 11.875 10 18.3333 10 18.3333C10 18.3333 15.8333 11.875 15.8333 7.5C15.8333 4.275 13.225 1.66667 10 1.66667ZM5.83333 7.5C5.83333 5.2 7.7 3.33333 10 3.33333C12.3 3.33333 14.1667 5.2 14.1667 7.5C14.1667 9.9 11.7667 13.4917 10 15.7333C8.26667 13.5083 5.83333 9.875 5.83333 7.5Z" fill="var(--fill-0, black)"/>
<path id="Vector_3" d="M10 9.58333C11.1506 9.58333 12.0833 8.65059 12.0833 7.5C12.0833 6.34941 11.1506 5.41667 10 5.41667C8.84941 5.41667 7.91667 6.34941 7.91667 7.5C7.91667 8.65059 8.84941 9.58333 10 9.58333Z" fill="var(--fill-0, black)"/>
</g>
<defs>
<clipPath id="clip0_27_95">
<rect width="20" height="20" fill="white"/>
</clipPath>
</defs>
</svg>
