<svg xmlns="http://www.w3.org/2000/svg" width="32" height="32" viewBox="0 0 32 32">
  <g fill="#000" transform="translate(16 16)">
    <polygon points="-1.15,-13.5 1.15,-13.5 0.35,-1.1 -0.35,-1.1" />
    <polygon points="-1.15,-13.5 1.15,-13.5 0.35,-1.1 -0.35,-1.1" transform="rotate(45)" />
    <polygon points="-1.15,-13.5 1.15,-13.5 0.35,-1.1 -0.35,-1.1" transform="rotate(90)" />
    <polygon points="-1.15,-13.5 1.15,-13.5 0.35,-1.1 -0.35,-1.1" transform="rotate(135)" />
    <polygon points="-1.15,-13.5 1.15,-13.5 0.35,-1.1 -0.35,-1.1" transform="rotate(180)" />
    <polygon points="-1.15,-13.5 1.15,-13.5 0.35,-1.1 -0.35,-1.1" transform="rotate(225)" />
    <polygon points="-1.15,-13.5 1.15,-13.5 0.35,-1.1 -0.35,-1.1" transform="rotate(270)" />
    <polygon points="-1.15,-13.5 1.15,-13.5 0.35,-1.1 -0.35,-1.1" transform="rotate(315)" />
    <circle r="1.5" />
  </g>
</svg>
