<svg xmlns="http://www.w3.org/2000/svg" width="32" height="32" viewBox="-2 -3 31 30" fill="none">
<path d="M14.5159 8.63148C16.3657 8.14585 17.7564 9.73726 17.8421 10.1385C17.9279 10.5397 18.196 12.4006 17.8846 12.8472C17.1255 13.6374 14.7618 15.2006 13.573 15.0671C12.1217 14.9041 8.63226 12.3642 8.04683 10.1867C7.87966 9.56498 7.33464 5.24496 7.52966 4.68604C8.17628 2.83284 10.2981 2.33528 11.0978 1.9802L11.1338 1.96423C12.1808 1.49912 13.7436 0.804944 15.5745 1.48068C16.6808 1.88898 21.9697 2.92444 23.206 5.60181C23.7704 6.82406 25.759 11.5747 24.6725 15.9055C24.0015 18.5799 21.3204 22.1828 18.618 22.2758C16.4138 22.3517 12.9842 23.1599 10.3121 21.5331C7.43352 19.7806 3.07582 17.4032 1.20117 9.77901" stroke="black" stroke-width="2.4" stroke-linecap="round" stroke-linejoin="round"/>
</svg>
